<?xml version="1.0" encoding="utf-8"?>
<!-- Generator: Adobe Illustrator 19.1.0, SVG Export Plug-In . SVG Version: 6.00 Build 0)  -->
<!DOCTYPE svg PUBLIC "-//W3C//DTD SVG 1.1//EN" "http://www.w3.org/Graphics/SVG/1.1/DTD/svg11.dtd">
<svg version="1.1" id="icons" xmlns="http://www.w3.org/2000/svg" xmlns:xlink="http://www.w3.org/1999/xlink" x="0px" y="0px"
	 width="631.2px" height="426.1px" viewBox="0 0 631.2 426.1" style="enable-background:new 0 0 631.2 426.1;" xml:space="preserve"
	>
<style type="text/css">
	.st0{fill:#FFC236;}
	.st1{fill:#FFC236;stroke:#565656;stroke-width:13.6;stroke-miterlimit:10;}
	.st2{fill:#FFFFFF;}
	.st3{fill:none;stroke:#565656;stroke-width:13.6625;stroke-miterlimit:10;}
	.st4{fill:none;stroke:#565656;stroke-width:11.7304;stroke-miterlimit:10;}
	.st5{fill:#8F95A4;}
	.st6{fill:none;stroke:#FFC236;stroke-width:11.75;stroke-miterlimit:10;}
	.st7{fill:none;stroke:#565656;stroke-width:11.75;stroke-miterlimit:10;}
	.st8{fill:none;stroke:#565656;stroke-width:13.4403;stroke-miterlimit:10;}
	.st9{fill:#565656;}
	.st10{fill:none;stroke:#FFC236;stroke-width:13.6625;stroke-miterlimit:10;}
	.st11{fill:none;stroke:#565656;stroke-width:12.316;stroke-miterlimit:10;}
</style>
<polygon class="st0" points="349.7,128.4 321.8,134.2 321.8,57.4 285.1,166.4 313,160.6 313,237.4 "/>
<path class="st5" d="M248.3,180.3h-83.5c-4.1,0-7.4-3.3-7.4-7.4v-1.6c0-4.1,3.3-7.4,7.4-7.4h83.5c4.1,0,7.4,3.3,7.4,7.4v1.6
	C255.7,177,252.3,180.3,248.3,180.3z"/>
<path class="st5" d="M248.3,206h-83.5c-4.1,0-7.4-3.3-7.4-7.4V197c0-4.1,3.3-7.4,7.4-7.4h83.5c4.1,0,7.4,3.3,7.4,7.4v1.6
	C255.7,202.6,252.3,206,248.3,206z"/>
<path class="st5" d="M248.3,231.6h-83.5c-4.1,0-7.4-3.3-7.4-7.4v-1.6c0-4.1,3.3-7.4,7.4-7.4h83.5c4.1,0,7.4,3.3,7.4,7.4v1.6
	C255.7,228.3,252.3,231.6,248.3,231.6z"/>
<path class="st5" d="M248.3,257.2h-83.5c-4.1,0-7.4-3.3-7.4-7.4v-1.6c0-4.1,3.3-7.4,7.4-7.4h83.5c4.1,0,7.4,3.3,7.4,7.4v1.6
	C255.7,253.9,252.3,257.2,248.3,257.2z"/>
<rect x="190.2" y="149.3" class="st5" width="32.7" height="207.4"/>
<path class="st5" d="M465.7,180.3h-83.5c-4.1,0-7.4-3.3-7.4-7.4v-1.6c0-4.1,3.3-7.4,7.4-7.4h83.5c4.1,0,7.4,3.3,7.4,7.4v1.6
	C473.1,177,469.8,180.3,465.7,180.3z"/>
<path class="st5" d="M465.7,206h-83.5c-4.1,0-7.4-3.3-7.4-7.4V197c0-4.1,3.3-7.4,7.4-7.4h83.5c4.1,0,7.4,3.3,7.4,7.4v1.6
	C473.1,202.6,469.8,206,465.7,206z"/>
<path class="st5" d="M465.7,231.6h-83.5c-4.1,0-7.4-3.3-7.4-7.4v-1.6c0-4.1,3.3-7.4,7.4-7.4h83.5c4.1,0,7.4,3.3,7.4,7.4v1.6
	C473.1,228.3,469.8,231.6,465.7,231.6z"/>
<path class="st5" d="M465.7,257.2h-83.5c-4.1,0-7.4-3.3-7.4-7.4v-1.6c0-4.1,3.3-7.4,7.4-7.4h83.5c4.1,0,7.4,3.3,7.4,7.4v1.6
	C473.1,253.9,469.8,257.2,465.7,257.2z"/>
<rect x="407.6" y="149.3" class="st5" width="32.7" height="207.4"/>
<rect x="143.4" y="307.7" class="st5" width="344.3" height="77"/>
<line class="st3" x1="143.4" y1="384.7" x2="487.7" y2="384.7"/>
<line class="st8" x1="224.7" y1="314" x2="406" y2="314"/>
<line class="st8" x1="441.8" y1="314" x2="487.7" y2="314"/>
<line class="st8" x1="143.4" y1="314" x2="188.7" y2="314"/>
</svg>
