<?xml version="1.0" encoding="UTF-8" standalone="no"?>
<svg
   xmlns:dc="http://purl.org/dc/elements/1.1/"
   xmlns:cc="http://creativecommons.org/ns#"
   xmlns:rdf="http://www.w3.org/1999/02/22-rdf-syntax-ns#"
   xmlns:svg="http://www.w3.org/2000/svg"
   xmlns="http://www.w3.org/2000/svg"
   xmlns:sodipodi="http://sodipodi.sourceforge.net/DTD/sodipodi-0.dtd"
   xmlns:inkscape="http://www.inkscape.org/namespaces/inkscape"
   width="24"
   height="24"
   viewBox="0 0 24 24"
   version="1.1"
   id="svg6"
   sodipodi:docname="bandaid.svg"
   inkscape:version="0.92.3 (2405546, 2018-03-11)">
  <metadata
     id="metadata12">
    <rdf:RDF>
      <cc:Work
         rdf:about="">
        <dc:format>image/svg+xml</dc:format>
        <dc:type
           rdf:resource="http://purl.org/dc/dcmitype/StillImage" />
      </cc:Work>
    </rdf:RDF>
  </metadata>
  <defs
     id="defs10" />
  <sodipodi:namedview
     pagecolor="#ffffff"
     bordercolor="#666666"
     borderopacity="1"
     objecttolerance="10"
     gridtolerance="10"
     guidetolerance="10"
     inkscape:pageopacity="0"
     inkscape:pageshadow="2"
     inkscape:window-width="690"
     inkscape:window-height="572"
     id="namedview8"
     showgrid="false"
     inkscape:zoom="9.8333333"
     inkscape:cx="12"
     inkscape:cy="12"
     inkscape:window-x="0"
     inkscape:window-y="278"
     inkscape:window-maximized="0"
     inkscape:current-layer="svg6" />
  <path
     d="M0 0h24v24H0z"
     fill="none"
     id="path2" />
  <path
     d="M17.73 12.02l3.98-3.98c.39-.39.39-1.02 0-1.41l-4.34-4.34c-.39-.39-1.02-.39-1.41 0l-3.98 3.98L8 2.29C7.8 2.1 7.55 2 7.29 2c-.25 0-.51.1-.7.29L2.25 6.63c-.39.39-.39 1.02 0 1.41l3.98 3.98L2.25 16c-.39.39-.39 1.02 0 1.41l4.34 4.34c.39.39 1.02.39 1.41 0l3.98-3.98 3.98 3.98c.2.2.45.29.71.29.26 0 .51-.1.71-.29l4.34-4.34c.39-.39.39-1.02 0-1.41l-3.99-3.98zM12 9c.55 0 1 .45 1 1s-.45 1-1 1-1-.45-1-1 .45-1 1-1zm-4.71 1.96L3.66 7.34l3.63-3.63 3.62 3.62-3.62 3.63zM10 13c-.55 0-1-.45-1-1s.45-1 1-1 1 .45 1 1-.45 1-1 1zm2 2c-.55 0-1-.45-1-1s.45-1 1-1 1 .45 1 1-.45 1-1 1zm2-4c.55 0 1 .45 1 1s-.45 1-1 1-1-.45-1-1 .45-1 1-1zm2.66 9.34l-3.63-3.62 3.63-3.63 3.62 3.62-3.62 3.63z"
     id="path4"
     style="fill:#ffffff" />
</svg>
