<?xml version="1.0" encoding="UTF-8" standalone="no"?>
<svg
   xmlns:dc="http://purl.org/dc/elements/1.1/"
   xmlns:cc="http://creativecommons.org/ns#"
   xmlns:rdf="http://www.w3.org/1999/02/22-rdf-syntax-ns#"
   xmlns:svg="http://www.w3.org/2000/svg"
   xmlns="http://www.w3.org/2000/svg"
   xmlns:xlink="http://www.w3.org/1999/xlink"
   xmlns:sodipodi="http://sodipodi.sourceforge.net/DTD/sodipodi-0.dtd"
   xmlns:inkscape="http://www.inkscape.org/namespaces/inkscape"
   width="24"
   height="24"
   viewBox="0 0 24 24"
   version="1.1"
   id="svg3743"
   sodipodi:docname="shield.svg"
   inkscape:version="0.92.3 (2405546, 2018-03-11)">
  <metadata
     id="metadata3749">
    <rdf:RDF>
      <cc:Work
         rdf:about="">
        <dc:format>image/svg+xml</dc:format>
        <dc:type
           rdf:resource="http://purl.org/dc/dcmitype/StillImage" />
        <dc:title></dc:title>
      </cc:Work>
    </rdf:RDF>
  </metadata>
  <defs
     id="defs3747">
    <clipPath
       clipPathUnits="userSpaceOnUse"
       id="clipPath3984">
      <use
         x="0"
         y="0"
         xlink:href="#g3980"
         id="use3986"
         width="100%"
         height="100%" />
    </clipPath>
  </defs>
  <sodipodi:namedview
     pagecolor="#ffffff"
     bordercolor="#666666"
     borderopacity="1"
     objecttolerance="10"
     gridtolerance="10"
     guidetolerance="10"
     inkscape:pageopacity="0"
     inkscape:pageshadow="2"
     inkscape:window-width="1080"
     inkscape:window-height="1867"
     id="namedview3745"
     showgrid="false"
     showguides="true"
     inkscape:guide-bbox="true"
     inkscape:zoom="19.666667"
     inkscape:cx="12.153659"
     inkscape:cy="3.3713494"
     inkscape:window-x="2992"
     inkscape:window-y="-8"
     inkscape:window-maximized="1"
     inkscape:current-layer="svg3743">
    <sodipodi:guide
       position="-1.5762712,22.881356"
       orientation="0,1"
       id="guide4000"
       inkscape:locked="false" />
    <sodipodi:guide
       position="-6.0508475,0.81355932"
       orientation="0,1"
       id="guide4002"
       inkscape:locked="false" />
    <sodipodi:guide
       position="2.4915254,35.440678"
       orientation="1,0"
       id="guide4004"
       inkscape:locked="false" />
    <sodipodi:guide
       position="20.542373,35.186441"
       orientation="1,0"
       id="guide4006"
       inkscape:locked="false" />
    <sodipodi:guide
       position="11.491525,36.20339"
       orientation="1,0"
       id="guide4008"
       inkscape:locked="false" />
    <sodipodi:guide
       position="-6.5084746,11.79661"
       orientation="0,1"
       id="guide4010"
       inkscape:locked="false" />
  </sodipodi:namedview>
  <path
     d="M0 0h24v24H0z"
     fill="none"
     id="path3739" />
  <path
     d="M 11.542969 1.1777344 L 2.5429688 5.1777344 L 2.5429688 11.177734 C 2.5429688 16.727734 6.3829687 21.917734 11.542969 23.177734 C 16.702969 21.917734 20.542969 16.727734 20.542969 11.177734 L 20.542969 5.1777344 L 11.542969 1.1777344 z M 11.53125 3.2675781 C 11.622678 3.4976131 12.291994 5.4978339 12.759766 6.9355469 C 12.946595 7.5097759 13.187077 8.24879 13.294922 8.578125 L 13.492188 9.1757812 L 16.617188 9.1757812 C 18.643218 9.1757813 19.743247 9.1797 19.748047 9.1875 C 19.761718 9.209626 19.731557 9.2482744 19.654297 9.3027344 C 19.612164 9.3324334 18.982088 9.780326 18.255859 10.296875 C 16.178379 11.774535 16.125413 11.812688 15.431641 12.302734 C 15.070216 12.558027 14.774636 12.771797 14.775391 12.779297 C 14.777847 12.80369 15.203372 14.173819 15.923828 16.484375 C 16.152379 17.217358 16.41117 18.051769 16.5 18.337891 C 16.582302 18.625962 16.660403 18.859828 16.658203 18.861328 C 16.656089 18.862928 16.589409 18.819555 16.511719 18.765625 C 15.274825 17.906976 14.662436 17.467212 12.111328 15.607422 L 11.525391 15.179688 L 11.492188 15.201172 C 11.315675 15.315613 10.361076 15.993918 9.1425781 16.871094 C 7.4385211 18.09782 6.4587925 18.790824 6.4453125 18.777344 C 6.4420675 18.774099 6.5166981 18.53553 6.6113281 18.246094 C 6.7059621 17.956657 6.972372 17.13655 7.203125 16.423828 C 7.661705 15.007445 7.9754838 14.051207 8.2148438 13.341797 C 8.3000167 13.089356 8.3691406 12.878547 8.3691406 12.873047 C 8.3691406 12.846648 6.8131926 11.740046 4.5546875 10.160156 L 3.1914062 9.2070312 L 3.2910156 9.1972656 C 3.3449446 9.1920856 4.7660646 9.1854406 6.4492188 9.1816406 L 9.5097656 9.1738281 L 9.5605469 9.03125 C 9.8946679 8.101487 10.08369 7.5452197 10.849609 5.2460938 C 11.433789 3.4925157 11.52084 3.2413981 11.53125 3.2675781 z M 11.507812 5.3144531 C 11.494357 5.3121601 11.446454 5.4538807 10.832031 7.3085938 C 10.432916 8.5133757 10.203952 9.179919 10.037109 9.625 L 9.9960938 9.734375 L 7.6230469 9.7421875 L 5.2480469 9.7480469 L 5.4414062 9.9023438 C 5.8081074 10.195762 5.9468455 10.29513 7.9140625 11.669922 C 8.5081425 12.085099 9.1054688 12.527324 9.1054688 12.552734 C 9.1054688 12.577634 8.7699848 13.627869 8.3085938 15.041016 C 8.1475758 15.534177 7.9423256 16.164424 7.8535156 16.441406 C 7.7646986 16.718387 7.6905 16.952337 7.6875 16.960938 C 7.680071 16.983714 7.7023229 16.970425 7.9824219 16.785156 C 8.4511429 16.475128 8.8388964 16.200029 9.9648438 15.384766 C 10.496481 14.999829 10.999049 14.64765 11.3125 14.4375 L 11.523438 14.294922 L 11.988281 14.632812 C 12.244111 14.818108 12.779152 15.207614 13.177734 15.498047 C 13.947976 16.059298 14.520841 16.469169 14.921875 16.748047 C 15.056986 16.842 15.209106 16.949085 15.259766 16.984375 C 15.310436 17.019675 15.353569 17.042709 15.355469 17.037109 C 15.367095 17.004929 14.982798 15.734993 14.429688 13.972656 C 13.979534 12.538214 13.966056 12.493493 13.972656 12.476562 C 13.975889 12.468286 14.127077 12.35669 14.308594 12.228516 C 14.490107 12.100342 15.232759 11.571945 15.958984 11.054688 C 16.685212 10.537436 17.340393 10.073517 17.414062 10.023438 C 17.553702 9.9285135 17.645844 9.8451869 17.683594 9.7792969 L 17.705078 9.7421875 L 15.353516 9.7421875 L 13.001953 9.7421875 L 12.878906 9.375 C 12.810767 9.17402 12.680794 8.780356 12.589844 8.5 C 12.085539 6.94542 11.966101 6.583258 11.839844 6.21875 C 11.636365 5.631292 11.520883 5.3166531 11.507812 5.3144531 z M 11.501953 6.9863281 C 11.506971 6.9913991 11.555675 7.1145176 11.609375 7.2597656 C 11.825891 7.8454376 12.059354 8.5439377 12.402344 9.6367188 L 12.601562 10.275391 L 14.308594 10.285156 C 15.247095 10.290006 16.054272 10.297434 16.101562 10.302734 L 16.1875 10.3125 L 16.144531 10.34375 C 16.120884 10.36145 15.804787 10.586397 15.443359 10.841797 C 14.530603 11.486791 13.996844 11.868726 13.431641 12.283203 C 13.369761 12.328573 13.345509 12.355441 13.349609 12.369141 C 13.382923 12.480187 13.632006 13.282615 13.796875 13.806641 C 14.043135 14.589357 14.168818 14.993846 14.294922 15.416016 C 14.346382 15.588281 14.391531 15.735741 14.394531 15.744141 C 14.401711 15.765151 14.387973 15.762368 14.351562 15.736328 C 14.33467 15.724251 14.204371 15.636173 14.0625 15.539062 C 13.729176 15.310891 13.323831 15.021731 12.705078 14.570312 C 12.001497 14.057009 11.512394 13.708629 11.496094 13.708984 C 11.475102 13.70944 10.885288 14.125899 10.181641 14.636719 C 9.3391002 15.248365 8.66858 15.719361 8.65625 15.707031 C 8.651865 15.702646 8.9833712 14.637754 9.1757812 14.039062 C 9.3208963 13.587542 9.5047791 13.035315 9.6269531 12.685547 C 9.6782831 12.538617 9.719031 12.412697 9.71875 12.404297 C 9.717868 12.378039 9.2564197 12.041754 8.4335938 11.470703 C 7.5925687 10.887019 7.3363147 10.702523 6.9648438 10.412109 L 6.8066406 10.287109 L 8.5878906 10.285156 L 10.369141 10.28125 L 10.460938 10.033203 C 10.6003 9.6565541 10.738171 9.250245 11.132812 8.0625 C 11.3309 7.466312 11.496953 6.9812281 11.501953 6.9863281 z "
     id="path3741" />
  <g
     id="g3982"
     clip-path="url(#clipPath3984)"
     transform="translate(-0.07190917,0.6086731)"
     style="fill:#ffffff">
    <g
       inkscape:label="Clip"
       id="g3980"
       style="fill:#ffffff" />
  </g>
</svg>
