<?xml version="1.0" encoding="UTF-8" standalone="no"?>
<svg
   xmlns:dc="http://purl.org/dc/elements/1.1/"
   xmlns:cc="http://creativecommons.org/ns#"
   xmlns:rdf="http://www.w3.org/1999/02/22-rdf-syntax-ns#"
   xmlns:svg="http://www.w3.org/2000/svg"
   xmlns="http://www.w3.org/2000/svg"
   xmlns:sodipodi="http://sodipodi.sourceforge.net/DTD/sodipodi-0.dtd"
   xmlns:inkscape="http://www.inkscape.org/namespaces/inkscape"
   width="24"
   height="24"
   fill-rule="evenodd"
   clip-rule="evenodd"
   version="1.1"
   id="svg4"
   sodipodi:docname="towers.svg"
   inkscape:export-filename="C:\Users\IanTrent\Desktop\icons\iconmonstr-building-27.png"
   inkscape:export-xdpi="400"
   inkscape:export-ydpi="400"
   inkscape:version="0.92.3 (2405546, 2018-03-11)">
  <metadata
     id="metadata10">
    <rdf:RDF>
      <cc:Work
         rdf:about="">
        <dc:format>image/svg+xml</dc:format>
        <dc:type
           rdf:resource="http://purl.org/dc/dcmitype/StillImage" />
        <dc:title></dc:title>
      </cc:Work>
    </rdf:RDF>
  </metadata>
  <defs
     id="defs8" />
  <sodipodi:namedview
     pagecolor="#ffffff"
     bordercolor="#666666"
     borderopacity="1"
     objecttolerance="10"
     gridtolerance="10"
     guidetolerance="10"
     inkscape:pageopacity="0"
     inkscape:pageshadow="2"
     inkscape:window-width="1080"
     inkscape:window-height="1867"
     id="namedview6"
     showgrid="false"
     inkscape:zoom="9.8333333"
     inkscape:cx="12"
     inkscape:cy="12"
     inkscape:window-x="2992"
     inkscape:window-y="-8"
     inkscape:window-maximized="1"
     inkscape:current-layer="svg4" />
  <path
     d="M24 24h-24v-2h1c2.996-4.904 3.945-12.985 4-16h7c.054 2.94 1.005 10.982 4 16h1.742l-.642-1.093c-1.195-2.145-1.948-4.546-2.501-6.924.268-1.659.385-3.106.401-3.983h5c.04 2.205.753 8.236 3 12h1v2zm-18.287-6h2l-1.167 3 4.167-5h-2l1.167-3-4.167 5zm12.924-12.915c.238-.522.759-.885 1.363-.885s1.125.363 1.363.885c.154-.08.328-.125.512-.125.621 0 1.125.511 1.125 1.14 0 .629-.504 1.14-1.125 1.14-.184 0-.358-.045-.512-.125-.238.522-.759.885-1.363.885s-1.125-.363-1.363-.885c-.154.08-.328.125-.512.125-.621 0-1.125-.511-1.125-1.14 0-.629.504-1.14 1.125-1.14.184 0 .358.045.512.125zm-10.637-.085c.198-2.182 1.785-4 3.5-4 .246 0 .478.059.683.164.316-.687 1.011-1.164 1.817-1.164s1.501.477 1.817 1.164c.205-.105.437-.164.683-.164.828 0 1.5.672 1.5 1.5s-.672 1.5-1.5 1.5c-.246 0-.478-.059-.683-.164-.316.687-1.011 1.164-1.817 1.164-2.345 0-3.722-2.951-5 0h-1z"
     id="path2" />
</svg>
